<svg id="Layer_1" data-name="Layer 1" xmlns="http://www.w3.org/2000/svg" viewBox="0 0 700 550"><title>gifts on the way</title><path d="M199.47309,165.02171a5.69384,5.69384,0,0,0,.172,10.636c29.281,10.605,81.845,23.842,141.131,8.356,18.592-4.856,66.176-17.981,100.016-60.92,10.384-13.176,19.886-25.232,16.367-31.822-6.746-12.63-61.295-5.173-257.686,73.75" fill="#edf2fa"/><path d="M137.67129,216.39369c-23.167,22.534-2.819,77.428,11.808,102.855,6.686,11.624,26.701,46.418,66.562,57.466,40.127,11.121,56.196-14.065,102.853-11.76,63.325,3.128,70.312,51.335,120.226,53.085,59.47,2.087,126.75595-63.63,147.495-132.609,21.595-71.82-3.451-159.883-48.189-171.035-21.839-5.444-33.176,11.227-124.066,58.117-58.29,30.073-87.434,45.11-111.213,49.913-88.106,17.797-138.792-31.986-165.476-6.032" fill="#edf2fa"/><path d="M388.74827,260.07493a.99954.99954,0,0,0-.418-1.35l-10.605-5.596-2.693-9.061,8.874,4.684a1.00009,1.00009,0,0,0,1.461-.778l.081-.755a1.02121,1.02121,0,0,0-.014-.312l-1.991-9.523,8.466,4.587,2.337,11.182a1.00034,1.00034,0,0,0,1.958-.411l-1.99-9.523,2.979,1.614a2.73509,2.73509,0,0,0,.622,2.381c2.443,2.989,7.092-.804,4.644-3.797a2.8425,2.8425,0,0,0-4.214-.289l-3.142-1.702,9.499-2.936a1.00063,1.00063,0,0,0-.591-1.912l-11.367,3.515-8.312-4.503,9.498-2.936a1.00105,1.00105,0,0,0,.484-1.583l-.477-.59-.004-.006a.97988.97988,0,0,0-.227-.204l-8.179-5.35,9.587-2.849,9.789,5.912a.99984.99984,0,0,0,1.035-1.711l-8.231-4.972,3.917-1.164c.029.039.045.079.078.118,2.443,2.988,7.092-.804,4.645-3.798-1.9-2.324-5.12-.545-5.313,1.768l-4.179,1.242,4.367-9.053a.99939.99939,0,1,0-1.8-.869l-5.159,10.693-9.316,2.768,4.618-8.753a1.003,1.003,0,0,0-.002-.936.9768.9768,0,0,0-.775-.524l-.755-.081a.96171.96171,0,0,0-.312.016l-9.541,1.994,4.587-8.467,11.199-2.341a1.00023,1.00023,0,0,0-.41-1.958l-9.54,1.995,1.737-3.208c2.226.058,4.387-2.638,2.549-4.885-2.443-2.99-7.092.803-4.644,3.797a3.32856,3.32856,0,0,0,.265.266l-1.689,3.119-2.931-9.48a1.00016,1.00016,0,0,0-1.911.591l3.509,11.349-4.502,8.311-2.932-9.481a.998.998,0,0,0-.777-.688l-.774-.141a1.00282,1.00282,0,0,0-1.034.467l-5.139,8.511-2.72-9.151,6.08-10.066a1.00025,1.00025,0,1,0-1.712-1.035l-5.139,8.509-.996-3.349a2.84114,2.84114,0,0,0,.572-4.199c-2.444-2.99-7.093.803-4.645,3.798a2.74407,2.74407,0,0,0,2.19,1.082l.92,3.099-8.758-4.226a.99939.99939,0,1,0-.869,1.8l10.398,5.019,2.72,9.149-8.76-4.225a.99671.99671,0,0,0-1.009.081l-.635.446a1.00056,1.00056,0,0,0-.396,1.058l2.361,9.563-8.393-4.547-2.797-11.331a1.00021,1.00021,0,0,0-1.942.48l2.362,9.563-2.821-1.527a2.73523,2.73523,0,0,0-.626-2.358c-2.444-2.99-7.093.803-4.645,3.796a2.84426,2.84426,0,0,0,4.231.274l2.886,1.563-9.266,3.234a.99969.99969,0,1,0,.658,1.888l10.986-3.834,8.394,4.547-9.267,3.235a.99688.99688,0,0,0-.656.77l-.135.765a1.00415,1.00415,0,0,0,.468,1.029l8.395,5.07-8.802,2.617-9.751-6.379a.99991.99991,0,0,0-1.094,1.674l8.334,5.451-3.526,1.048c-.049-.071-.085-.144-.142-.214-2.444-2.989-7.093.803-4.645,3.798,1.868,2.285,5.015.604,5.305-1.651l3.34-.993-4.527,8.577a1.00418,1.00418,0,0,0,.111,1.1,1.02939,1.02939,0,0,0,.308.252,1.00044,1.00044,0,0,0,1.351-.419l5.438-10.307,8.904-2.646-4.284,8.88a.9951.9951,0,0,0,.082,1.008l.445.635.044.059a1.00178,1.00178,0,0,0,1.015.337l9.546-2.356-4.547,8.394-11.315,2.792a.99985.99985,0,0,0,.481,1.941l9.545-2.356-1.457,2.69c-2.304-.266-4.688,2.528-2.786,4.856,2.444,2.988,7.093-.805,4.645-3.798-.032-.039-.069-.065-.101-.102l1.459-2.693,3.24,9.283a.99969.99969,0,1,0,1.888-.658l-3.84-11.003,4.547-8.394,3.24,9.285a1.00035,1.00035,0,0,0,1.583.439l.582-.481a1.04754,1.04754,0,0,0,.197-.223l5.279-8.069,2.743,9.23-6.206,9.487a.99989.99989,0,0,0,1.674,1.094l5.279-8.069,1.007,3.385a2.83989,2.83989,0,0,0-.539,4.177c2.444,2.989,7.093-.804,4.646-3.798a2.73763,2.73763,0,0,0-2.228-1.079l-1.023-3.439,8.876,4.682a.99834.99834,0,0,0,1.35-.418m-5.52-13.943-8.993-4.745-3.186-10.717,10.089,5.465Zm8.27-14.85-9.626,2.976-9.869-5.348,10.913-3.243Zm-4.652-16.349-4.681,8.871-10.732,3.189,5.399-9.966Zm-15.022-8.822,3.142,10.16-5.293,9.769-3.26-10.969Zm-16.699,4.889,9.329,4.501,3.302,11.11-10.133-5.491Zm-8.342,15.312,9.867-3.444,10.153,5.501-11.133,3.31Zm4.931,16.723,4.56-9.449,11.098-3.299-5.555,10.255Zm15.125,7.809-3.263-9.35,5.556-10.254,3.291,11.071Z" fill="#e4ebf1"/><path d="M315.02879,242.88789a1.5009,1.5009,0,0,0,0-3,1.5009,1.5009,0,0,0,0,3" fill="#fff"/><path d="M245.90868,165.90739c3.86,0,3.867-6,0-6-3.861,0-3.867,6,0,6" fill="#fff"/><path d="M228.74068,278.15642c3.86,0,3.867-6,0-6-3.86,0-3.867,6,0,6" fill="#fff"/><path d="M435.268,245.10762c3.861,0,3.867-6,0-6-3.86,0-3.867,6,0,6" fill="#fff"/><path d="M295.58829,127.7473c3.86,0,3.867-6,0-6-3.86,0-3.867,6,0,6" fill="#fff"/><path d="M201.268,424.38791c3.861,0,3.867-6,0-6-3.86,0-3.867,6,0,6" fill="#fff"/><path d="M498.6284,370.8674c3.86,0,3.867-6,0-6-3.86,0-3.867,6,0,6" fill="#fff"/><path d="M327.268,331.508c3.861,0,3.867-6,0-6-3.86,0-3.867,6,0,6" fill="#fff"/><path d="M170.04148,468.16431v-21.64a54.06279,54.06279,0,0,1,50.212-53.926l63.735-4.553,18.573-46.637c2.592-6.509,8.855-12.096,15.857-11.87l99.659,4.6a50.06259,50.06259,0,0,1,48.432,48.521l.61,20.138,21.139,23.363a30.40647,30.40647,0,0,1,7.857,20.397v21.607Z" fill="#ef403a"/><path d="M488.2573,426.16031l-21.138-23.363-.61-20.138a50.06332,50.06332,0,0,0-48.432-48.521l-22.133-.712-5.965-.585-71.561-3.303c-7.002-.226-13.265,5.361-15.857,11.87,0,0,8.177-9.698,21.618-8.384,8.192.801,26.555,2.489,42.724,4.448a56.16133,56.16133,0,0,1,42.294,28.285,171.46416,171.46416,0,0,1,15.407,37.883c8.825,31.771,28.99,53.237,42.279,64.524h29.232v-21.608a30.39712,30.39712,0,0,0-7.858-20.396" fill="#c72932"/><rect x="484.61311" y="423.54001" width="14.75299" height="18.822" fill="#c72932"/><path d="M502.72822,463.0641h-338.791a1.7666,1.7666,0,1,1,0-3.5332h338.791a1.7666,1.7666,0,0,1,0,3.5332Z" fill="#fff"/><path d="M376.685,390.5881H306.372a46.29163,46.29163,0,0,1,46.292-46.291h23.314a2.11981,2.11981,0,0,1,2.12,2.12v42.758a1.41284,1.41284,0,0,1-1.413,1.413" fill="#f0efef"/><path d="M445.24558,390.5881h-55.052a1.41285,1.41285,0,0,1-1.413-1.413v-42.758a2.1196,2.1196,0,0,1,2.119-2.12h8.055a46.29206,46.29206,0,0,1,46.291,46.291" fill="#f0efef"/><path d="M445.24558,390.58911a46.29226,46.29226,0,0,0-46.291-46.292h-8.055a2.11269,2.11269,0,0,0-1.692.856,55.89667,55.89667,0,0,1,19.99,20.604,166.09282,166.09282,0,0,1,11.255,24.832Z" fill="#dcdbdb"/><path d="M375.978,452.6496h-67.486a2.11979,2.11979,0,0,1-2.12-2.12v-52.226a2.1198,2.1198,0,0,1,2.12-2.12h67.486a2.1198,2.1198,0,0,1,2.12,2.12v52.226a2.1198,2.1198,0,0,1-2.12,2.12" fill="#f6978f"/><path d="M281.44578,458.49921a44.00251,44.00251,0,1,1-44.002-44.002,44.00153,44.00153,0,0,1,44.002,44.002" fill="#4c4c4b"/><path d="M256.52,458.49921a19.076,19.076,0,1,1-19.076-19.076,19.07649,19.07649,0,0,1,19.076,19.076"/><path d="M245.32859,458.49921a7.885,7.885,0,1,1-7.885-7.885,7.88535,7.88535,0,0,1,7.885,7.885" fill="#4c4c4b"/><path d="M471.44379,458.49921a44.0025,44.0025,0,1,1-44.002-44.002,44.00218,44.00218,0,0,1,44.002,44.002" fill="#4c4c4b"/><path d="M446.5171,458.49921a19.0755,19.0755,0,1,1-19.075-19.076,19.07565,19.07565,0,0,1,19.075,19.076"/><path d="M435.32658,458.49921a7.88552,7.88552,0,1,1-7.885-7.885,7.88536,7.88536,0,0,1,7.885,7.885" fill="#4c4c4b"/><rect x="315.99708" y="404.25101" width="12.97198" height="3.561" fill="#c72932"/><path d="M237.444,491.32485a32.82569,32.82569,0,1,1,32.82617-32.8252A32.8623,32.8623,0,0,1,237.444,491.32485Zm0-64.23926a31.41358,31.41358,0,1,0,31.41406,31.41406A31.45026,31.45026,0,0,0,237.444,427.08559Z" fill="#303443"/><path d="M427.44209,491.32485a32.82569,32.82569,0,1,1,32.82519-32.8252A32.86229,32.86229,0,0,1,427.44209,491.32485Zm0-64.23926a31.41358,31.41358,0,1,0,31.41308,31.41406A31.45026,31.45026,0,0,0,427.44209,427.08559Z" fill="#303443"/><rect x="305.87178" y="410.34828" width="1" height="36.95996" fill="#303443"/><rect x="345.19502" y="458.92836" width="35.04004" height="1" fill="#303443"/><rect x="402.31514" y="390.08949" width="39.19531" height="1" fill="#303443"/><rect x="242.07634" y="388.81758" width="41.95123" height="0.99988" transform="translate(-23.09203 16.64329) rotate(-3.47161)" fill="#303443"/><path d="M354.43787,141.4211a1.50088,1.50088,0,0,0,0-3,1.50088,1.50088,0,0,0,0,3" fill="#fff"/><rect x="316.00443" y="36.95615" width="84.23747" height="109.89343" transform="translate(236.50144 441.05397) rotate(-85.18783)" fill="#82c56d"/><path d="M402.6215,53.38112s-36.725,79.696-101.778,63.921l-1.007,11.962,109.507,9.219,7.066-83.941Z" fill="#4da258"/><rect x="364.06686" y="202.42448" width="35.06306" height="230.47756" transform="translate(33.04069 671.26588) rotate(-85.18749)" fill="#ffcc5d"/><rect x="371.76051" y="159.82548" width="26.08393" height="254.85147" transform="matrix(0.0839, -0.99647, 0.99647, 0.0839, 66.2806, 646.59787)" fill="#65cade"/><rect x="283.44506" y="148.70476" width="74.83036" height="165.0544" transform="translate(63.52543 531.5623) rotate(-85.18762)" fill="#ffcc5d"/><rect x="326.08186" y="72.2092" width="62.43003" height="186.43426" transform="translate(162.47815 507.58505) rotate(-85.18749)" fill="#f15b43"/><rect x="332.30699" y="123.88114" width="3.14758" height="144.95707" transform="translate(110.20058 512.58849) rotate(-85.18718)" fill="#f39821"/><rect x="332.30699" y="123.88114" width="3.14758" height="144.95707" transform="translate(110.20058 512.58849) rotate(-85.18718)" fill="#f39821"/><rect x="350.23209" y="67.9479" width="14.84736" height="186.43425" transform="translate(167.05322 504.03888) rotate(-85.18749)" fill="#65cade"/><polygon points="276.968 265.084 288.594 266.063 275.272 189.846 263.647 188.867 276.968 265.084" fill="#82c56d"/><polygon points="264.206 192.073 275.832 193.052 275.271 189.845 263.646 188.867 264.206 192.073" fill="#4da258"/><polygon points="237.23 240.868 403.927 228.297 404.885 216.909 238.189 229.479 237.23 240.868" fill="#82c56d"/><polygon points="266.59 264.21 434.84 304.552 510.685 310.938 512.873 284.945 266.59 264.21" fill="#46c2cc"/><polygon points="432.75 339.564 435.117 311.441 267.662 297.343 268.236 290.525 497.901 309.862 497.292 317.105 446.586 312.836 444.255 340.532 432.75 339.564" fill="#f39821"/><path d="M267.02879,277.69261a10.52976,10.52976,0,0,1-4.08-4.205c-.746-1.418-1.687-3.208-.92-4.369.903-1.368,3.601-.989,4.913-.587a7.214,7.214,0,0,1,4.742,4.833c.503,1.748.56,4.612-.881,5.361-1.028.535-2.38-.236-3.774-1.033" fill="#a5ddea"/><path d="M260.28368,278.25511q.34948,2.47353.889,4.913c.494,2.232,4.001,1.592,3.504-.656q-.54149-2.439-.889-4.913c-.32-2.27-3.824-1.615-3.504.656" fill="#a5ddea"/><path d="M279.102,312.02951a10.55157,10.55157,0,0,1-4.08-4.206c-.745-1.418-1.686-3.208-.919-4.368.902-1.369,3.6-.989,4.912-.588a7.21933,7.21933,0,0,1,4.743,4.833c.503,1.748.56,4.612-.881,5.361-1.028.535-2.38-.236-3.775-1.032" fill="#feecaa"/><path d="M272.35789,312.591q.348,2.4735.889,4.913c.494,2.232,4.001,1.592,3.504-.655q-.54149-2.4405-.889-4.913c-.32-2.271-3.824-1.616-3.504.655" fill="#feecaa"/><path d="M275.00919,175.56071a10.55122,10.55122,0,0,1-4.08-4.206c-.745-1.418-1.686-3.207-.92-4.368.903-1.368,3.601-.989,4.913-.588a7.21546,7.21546,0,0,1,4.742,4.834c.503,1.747.561,4.612-.88,5.361-1.029.534-2.38-.237-3.775-1.033" fill="#f6978f"/><path d="M268.26508,176.1223q.348,2.47353.889,4.913c.493,2.233,4.001,1.593,3.503-.655q-.54-2.44052-.889-4.913c-.32-2.271-3.823-1.616-3.503.655" fill="#f6978f"/><path d="M316.41059,60.12129a10.54463,10.54463,0,0,1-4.08-4.205c-.745-1.419-1.686-3.208-.919-4.369.903-1.368,3.6-.989,4.913-.587a7.214,7.214,0,0,1,4.742,4.833c.503,1.748.56,4.612-.881,5.361-1.028.535-2.38-.237-3.775-1.033" fill="#bcda86"/><path d="M309.66648,60.68379q.34946,2.47353.889,4.913c.494,2.232,4.001,1.592,3.504-.656q-.5415-2.439-.889-4.913c-.32-2.27-3.824-1.615-3.504.656" fill="#bcda86"/><path d="M413.0257,94.73762l-49.387-4.158a36.63876,36.63876,0,0,0,14.534-7.454c1.789-1.568,5.978-5.24,4.915-8.626-.511-1.627-2.119-2.865-4.649-3.578-1.709-.482-4.335-.721-9.491,1.739-2.976,1.42-5.554,3.106-12.164,8.851-1.524,1.325-2.764,2.406-3.786,3.315l2.978-35.372a1.78128,1.78128,0,1,0-3.55-.299l-2.869,34.062c-.394-.758-.828-1.587-1.307-2.503-4.065-7.759-5.852-10.269-8.106-12.674-3.904-4.166-6.436-4.901-8.207-5.076-2.625-.251-4.563.31-5.632,1.639-2.222,2.767.341,7.712,1.437,9.824a38.03839,38.03839,0,0,0,13.888,14.299l-38.111-3.209a1.7818,1.7818,0,0,0-.299,3.551l43.702,3.68c-5.406,4.766-6.023,12.134-6.051,12.515a.89077.89077,0,0,0,.814.953h.008a.89025.89025,0,0,0,.955-.82c.007-.088.644-7.469,6.033-11.768l-3.323,39.467a1.7818,1.7818,0,0,0,3.551.299l3.384-40.194,4.423.372c3.666,2.008,7.872,5.996,7.306,13.64a.89042.89042,0,0,0,.814.954l.008.001a.89155.89155,0,0,0,.955-.824c.494-6.673-2.343-10.874-5.574-13.475l52.502,4.42a1.78178,1.78178,0,0,0,.299-3.551m-55.073-11.881c6.454-5.61,8.935-7.239,11.762-8.588,4.619-2.203,6.831-2.029,8.242-1.632,1.867.527,3.118,1.4,3.43,2.396.716,2.279-2.993,5.529-4.389,6.753-6.024,5.281-14.368,7.702-20.122,8.224l-4.28-.36-.003-.012.186-2.214c1.34-1.234,3.184-2.837,5.174-4.567m-28.63-9.249c-.854-1.648-3.124-6.026-1.629-7.888.637-.792,2.058-1.151,3.913-.996l.155.015c1.46.143,3.584.787,7.082,4.52,2.142,2.286,3.859,4.706,7.828,12.283.963,1.839,1.871,3.573,2.603,5.027l-.192,2.289a1.6331,1.6331,0,0,0-.169.482l-2.777-.234c-5.248-2.348-12.866-7.884-16.814-15.498" fill="#fff"/><path d="M350.80808,110.83031q-1.836.9765-3.732,1.862l-1.718,20.404,3.551.298Z" fill="#e4ebf1"/><path d="M413.02579,94.7375h0l-37.234-3.135q-1.617,1.66351-3.325,3.296l40.26,3.39Z" fill="#e4ebf1"/><path d="M364.02189,107.21312a.88994.88994,0,0,0,.813.953l.009.001a.89051.89051,0,0,0,.954-.823,17.14994,17.14994,0,0,0-.574-6.09q-.756.606-1.524,1.202a16.0534,16.0534,0,0,1,.322,4.757" fill="#e4ebf1"/><path d="M311.78458,219.59779s11.201-4.13,21.4-3.18c10.2.951,21.923-.536,38.077-7.093l-7.461-2.403,2.492-7.78s-15.053,8.966-30.909,8.217-21.753.753-23.931,1.562Z" fill="#f15b43"/><path d="M311.78458,219.59779s2.043-.752,5.173-1.54c.182-.453.341-.902.49-1.338,1.255-3.658-.387-4.167-2.333-8.732a20.91631,20.91631,0,0,0-3.662.933Z" fill="#cf2633"/><path d="M248.56,233.842s-11.881,1.167-20.646,6.469c-8.763,5.302-19.962,9.076-37.359,10.218l5.667-5.416-5.635-5.916s17.456,1.506,31.399-6.081,19.905-8.806,22.218-9.027Z" fill="#f15b43"/><path d="M244.20359,224.08909a25.67973,25.67973,0,0,0-5.8,1.418c-.078,3.309-.62,4.507,1.684,6.827a13.82289,13.82289,0,0,0,2.948,2.418c3.27-.688,5.524-.91,5.524-.91Z" fill="#cf2633"/><path d="M283.82758,209.7014s8.373-11.932,16.428-14.22c8.055-2.289,7.134.893,9.504,8.82,2.369,7.926,5.078,7.745,3.561,12.163-1.516,4.418-3.813,10.225-25.275,7.78s-4.218-14.543-4.218-14.543" fill="#f15b43"/><path d="M293.25752,202.93422l-.36524-.46875c.30469-.2373,7.51465-5.792,11.72852-5.335l-.06641.58984C300.56514,197.26332,293.33076,202.87758,293.25752,202.93422Z" fill="#cf2633"/><path d="M311.04047,220.60182c-3.466-9.533-23.023,3.549-23.023,3.549,14.766,1.682,20.432-.554,23.023-3.549" fill="#cf2633"/><path d="M266.66349,213.63982s-12.736-7.087-20.983-5.635-6.033,3.914-4.708,12.081c1.324,8.166-1.193,9.184,2.097,12.499,3.291,3.315,7.891,7.539,26.14-4.018,18.248-11.558-2.546-14.927-2.546-14.927" fill="#f15b43"/><path d="M246.96918,235.30492c-.796-7.745,12.746-7.633,19.087-7.162,1.921.142,3.181.317,3.181.317-12.556,7.952-18.63,8.41-22.268,6.845" fill="#cf2633"/><path d="M264.13329,218.507a11.50836,11.50836,0,0,1-6.753.865,46.255,46.255,0,0,1,5.328,2.507c.971.728-.054,1.036-3.555,2.352,0,0,5.894-.659,8.106,2.398Z" fill="#cf2633"/><path d="M287.7924,213.07829a11.51472,11.51472,0,0,0,6.455-2.166,46.17987,46.17987,0,0,0-3.702,4.578c-.557,1.079.501.909,4.225.567,0,0-5.591,1.978-6.25,5.693Z" fill="#cf2633"/><path d="M274.55509,227.81862s-2.822,4.712-.481,16.824c0,0-1.502.784-4.623-3.253a13.13537,13.13537,0,0,0-3.456,4.376s-2.544-12.17,2.138-18.31Z" fill="#f15b43"/><path d="M266.53193,242.151c-.02832-.28223-.69043-6.94727.89258-9.25l.49024.33594c-1.46094,2.124-.79786,8.78613-.791,8.85351Z" fill="#cf2633"/><path d="M281.63029,226.0988s4.548,3.08,7.54,15.049c0,0,1.692.076,2.815-4.902a13.13086,13.13086,0,0,1,4.981,2.508s-2.831-12.105-9.668-15.695Z" fill="#f15b43"/><path d="M294.39424,235.89809c-.02246-.06446-2.23535-6.38379-4.45606-7.69043l.30078-.51172c2.40821,1.417,4.623,7.73828,4.71582,8.00684Z" fill="#cf2633"/><path d="M287.29829,223.05879l-5.668,3.04a11.48087,11.48087,0,0,1,2.559,2.906,3.73871,3.73871,0,0,0,2.448-.739,6.59733,6.59733,0,0,0,2.326-4.109,10.66617,10.66617,0,0,0-1.665-1.098" fill="#cf2633"/><path d="M268.13329,227.45531a10.87848,10.87848,0,0,0-1.222,2.067,6.562,6.562,0,0,0,2.862,1.954,4.95276,4.95276,0,0,0,3.762-.369,10.78347,10.78347,0,0,1,1.02-3.289Z" fill="#cf2633"/><path d="M270.01409,228.60182c-2.896-.94-4.286-3.962-4.791-5.061-.589-1.28-1.974-4.29-.514-7.032a5.63157,5.63157,0,0,1,3.934-2.993c1.171-.142,1.457.389,3.165.374a9.12858,9.12858,0,0,0,3.658-.84c2.527-1.106,3.693-2.202,5.492-2.91a4.59145,4.59145,0,0,1,4.797.77c3.388,2.158,3.602,6.271,3.655,7.301.036.678.265,5.099-2.532,7.181-1.63,1.214-2.678.437-6.598.965-6.123.825-7.262,3.221-10.266,2.245" fill="#f15b43"/><path d="M289.20158,224.3654c13.563,1.4,19.099-.641,21.718-3.444l.121-.32-22.077,3.555Z" fill="#cf2633"/><path d="M246.96918,235.30492s-.091.021-.245.057c3.444,1.564,9.098,1.32,20.566-5.61l-1.322-.562-10.807,3.284Z" fill="#cf2633"/><path d="M311.78458,219.59779s11.201-4.13,21.4-3.18c10.2.951,21.923-.536,38.077-7.093l-7.461-2.403,2.492-7.78s-15.053,8.966-30.909,8.217-21.753.753-23.931,1.562Z" fill="#f15b43"/><path d="M365.8159,200.6281l.477-1.486s-.893.53-2.462,1.318Z" fill="#cf2633"/><path d="M311.78458,219.59779s2.043-.752,5.173-1.54c.182-.453.341-.902.49-1.338,1.255-3.658-.387-4.167-2.333-8.732a20.91631,20.91631,0,0,0-3.662.933Z" fill="#cf2633"/><path d="M248.56,233.842s-11.881,1.167-20.646,6.469c-8.763,5.302-19.962,9.076-37.359,10.218l5.667-5.416-5.635-5.916s17.456,1.506,31.399-6.081,19.905-8.806,22.218-9.027Z" fill="#f15b43"/><path d="M244.20359,224.08909a25.67973,25.67973,0,0,0-5.8,1.418c-.078,3.309-.62,4.507,1.684,6.827a13.82289,13.82289,0,0,0,2.948,2.418c3.27-.688,5.524-.91,5.524-.91Z" fill="#cf2633"/><path d="M283.82758,209.7014s8.373-11.932,16.428-14.22c8.055-2.289,7.134.893,9.504,8.82,2.369,7.926,5.078,7.745,3.561,12.163-1.516,4.418-3.813,10.225-25.275,7.78s-4.218-14.543-4.218-14.543" fill="#f15b43"/><path d="M301.32859,195.19841l5.471.461c-.992-1.009-2.549-1.178-5.471-.461" fill="#cf2633"/><path d="M293.25752,202.93422l-.36524-.46875c.30469-.2373,7.51465-5.792,11.72852-5.335l-.06641.58984C300.56514,197.26332,293.33076,202.87758,293.25752,202.93422Z" fill="#cf2633"/><path d="M311.04047,220.60182c-3.466-9.533-23.023,3.549-23.023,3.549,14.766,1.682,20.432-.554,23.023-3.549" fill="#cf2633"/><path d="M266.66349,213.63982s-12.736-7.087-20.983-5.635-6.033,3.914-4.708,12.081c1.324,8.166-1.193,9.184,2.097,12.499,3.291,3.315,7.891,7.539,26.14-4.018,18.248-11.558-2.546-14.927-2.546-14.927" fill="#f15b43"/><path d="M246.96918,235.30492c-.796-7.745,12.746-7.633,19.087-7.162,1.921.142,3.181.317,3.181.317-12.556,7.952-18.63,8.41-22.268,6.845" fill="#cf2633"/><path d="M264.13329,218.507a11.50836,11.50836,0,0,1-6.753.865,46.255,46.255,0,0,1,5.328,2.507c.971.728-.054,1.036-3.555,2.352,0,0,5.894-.659,8.106,2.398Z" fill="#cf2633"/><path d="M287.7924,213.07829a11.51472,11.51472,0,0,0,6.455-2.166,46.17987,46.17987,0,0,0-3.702,4.578c-.557,1.079.501.909,4.225.567,0,0-5.591,1.978-6.25,5.693Z" fill="#cf2633"/><path d="M274.55509,227.81862s-2.822,4.712-.481,16.824c0,0-1.502.784-4.623-3.253a13.13537,13.13537,0,0,0-3.456,4.376s-2.544-12.17,2.138-18.31Z" fill="#f15b43"/><path d="M266.53193,242.151c-.02832-.28223-.69043-6.94727.89258-9.25l.49024.33594c-1.46094,2.124-.79786,8.78613-.791,8.85351Z" fill="#cf2633"/><path d="M281.63029,226.0988s4.548,3.08,7.54,15.049c0,0,1.692.076,2.815-4.902a13.13086,13.13086,0,0,1,4.981,2.508s-2.831-12.105-9.668-15.695Z" fill="#f15b43"/><path d="M294.39424,235.89809c-.02246-.06446-2.23535-6.38379-4.45606-7.69043l.30078-.51172c2.40821,1.417,4.623,7.73828,4.71582,8.00684Z" fill="#cf2633"/><path d="M287.29829,223.05879l-5.668,3.04a11.48087,11.48087,0,0,1,2.559,2.906,3.73871,3.73871,0,0,0,2.448-.739,6.59733,6.59733,0,0,0,2.326-4.109,10.66617,10.66617,0,0,0-1.665-1.098" fill="#cf2633"/><path d="M268.13329,227.45531a10.87848,10.87848,0,0,0-1.222,2.067,6.562,6.562,0,0,0,2.862,1.954,4.95276,4.95276,0,0,0,3.762-.369,10.78347,10.78347,0,0,1,1.02-3.289Z" fill="#cf2633"/><path d="M270.01409,228.60182c-2.896-.94-4.286-3.962-4.791-5.061-.589-1.28-1.974-4.29-.514-7.032a5.63157,5.63157,0,0,1,3.934-2.993c1.171-.142,1.457.389,3.165.374a9.12858,9.12858,0,0,0,3.658-.84c2.527-1.106,3.693-2.202,5.492-2.91a4.59145,4.59145,0,0,1,4.797.77c3.388,2.158,3.602,6.271,3.655,7.301.036.678.265,5.099-2.532,7.181-1.63,1.214-2.678.437-6.598.965-6.123.825-7.262,3.221-10.266,2.245" fill="#f15b43"/><path d="M289.20158,224.3654c13.563,1.4,19.099-.641,21.718-3.444l.121-.32-22.077,3.555Z" fill="#cf2633"/><path d="M246.96918,235.30492s-.091.021-.245.057c3.444,1.564,9.098,1.32,20.566-5.61l-1.322-.562-10.807,3.284Z" fill="#cf2633"/><rect x="379.76952" y="162.52333" width="62.43013" height="14.84737" transform="translate(207.1478 565.22019) rotate(-85.18616)" fill="#65cade"/><rect x="421.35954" y="298.6186" width="61.1476" height="23.75625" transform="translate(104.61766 734.78881) rotate(-85.1877)" fill="#f15b43"/><path d="M443.6909,290.62712a11.60346,11.60346,0,0,0-2.228,2.648l-1.035,12.296a8.24623,8.24623,0,0,1,1.656-1.041c2.212,4.598,3.844,4.144,3.844,4.144.229-12.335,3.969-16.357,3.969-16.357Z" fill="#cf2633"/><path d="M464.80808,299.15251a14.77227,14.77227,0,0,0-2.556-6.917l-6.423.358s2.819,4.714.467,16.825c0,0,1.501.785,4.625-3.249a12.1241,12.1241,0,0,1,2.993,3.592Z" fill="#cf2633"/><path d="M449.89689,292.31761a22.54886,22.54886,0,0,1,5.933.276c2.624.588,9.796-3.152,9.796-3.152l-13.974-6.32-9.228,3.894s1.647,5.981,4.131,6.281c2.485.299,3.342-.979,3.342-.979" fill="#cf2633"/><path d="M463.8159,274.00511s11.575-8.788,19.92-8.515c8.345.274,6.504,3.015,6.347,11.262-.159,8.248,2.468,8.898-.314,12.633-2.781,3.735-6.727,8.553-26.366-.289-19.639-8.841.413-15.091.413-15.091" fill="#f15b43"/><path d="M474.85908,270.484l-.20508-.55665c.36133-.13281,8.90235-3.25488,12.79492-1.50878l-.24414.541C483.53682,267.3141,474.946,270.45278,474.85908,270.484Z" fill="#f6978f"/><path d="M446.3198,272.53142s-9.943-10.6-18.216-11.725c-8.273-1.126-6.918,1.885-8.14,10.042-1.224,8.159-3.922,8.36-1.804,12.507,2.118,4.149,5.202,9.558,26.043,4.124,20.841-5.432,2.117-14.948,2.117-14.948" fill="#f15b43"/><path d="M442.37449,276.4445a11.50233,11.50233,0,0,1-6.696-1.232,46.29162,46.29162,0,0,1,4.311,4.009c.703.99-.368.971-4.102,1.158,0,0,5.814,1.169,6.99,4.753Z" fill="#cf2633"/><path d="M466.56287,278.48161a11.507,11.507,0,0,0,6.808-.097,45.99215,45.99215,0,0,0-4.921,3.234c-.86.857.2,1.018,3.851,1.826,0,0-5.928.181-7.687,3.518Z" fill="#cf2633"/><path d="M449.46427,288.48851s-4.124,3.629-5.584,15.879c0,0-1.67.288-3.411-4.507a13.12539,13.12539,0,0,0-4.625,3.114s1.283-12.366,7.613-16.788Z" fill="#f15b43"/><path d="M438.03779,299.818l-.582-.12305c.05859-.27734,1.459-6.82715,3.66895-8.53711l.36328.47071C439.45088,293.20473,438.05146,299.7516,438.03779,299.818Z" fill="#f6978f"/><path d="M456.726,289.00612s3.394,4.319,2.598,16.63c0,0,1.589.588,4.174-3.81a13.11221,13.11221,0,0,1,3.981,3.907s.991-12.394-4.427-17.896Z" fill="#f15b43"/><path d="M456.726,289.00612s3.394,4.319,2.598,16.63c0,0,1.589.588,4.174-3.81a13.11221,13.11221,0,0,1,3.981,3.907s.991-12.394-4.427-17.896Z" fill="#f15b43"/><path d="M465.89814,302.22719c-.002-.06738-.18457-6.75977-1.90234-8.68066l.44336-.39649c1.8623,2.083,2.0459,8.7793,2.05273,9.06348Z" fill="#f6978f"/><path d="M464.0034,288.9572a10.44009,10.44009,0,0,0-.951-1.12l-6.326,1.169a10.10165,10.10165,0,0,1,1.245,2.599,3.98723,3.98723,0,0,0,2.823.125,6.30254,6.30254,0,0,0,3.209-2.773" fill="#cf2633"/><path d="M443.4575,286.18571a10.74721,10.74721,0,0,0-1.5,1.288,6.266,6.266,0,0,0,1.847,2.183c1.359.977,2.513.889,4.202.755a9.20367,9.20367,0,0,1,1.458-1.923Z" fill="#cf2633"/><path d="M444.95649,287.758c-2.464-1.772-2.866-5.064-3.013-6.262-.171-1.394-.571-4.674,1.648-6.834a5.61085,5.61085,0,0,1,4.644-1.647c1.157.222,1.267.811,2.894,1.316a9.10588,9.10588,0,0,0,3.728.314c2.736-.284,4.176-.97,6.1-1.095a4.57942,4.57942,0,0,1,4.321,2.187c2.563,3.079,1.516,7.049,1.254,8.044-.173.655-1.297,4.923-4.586,6.051-1.916.657-2.677-.4-6.559-1.089-6.066-1.076-7.874.854-10.431-.985" fill="#f15b43"/><path d="M444.20258,287.47972s-.292-.14-.793-.364a1.32088,1.32088,0,0,0,.048-.93c-1.026-.477-6.855-1.658-6.855-1.658v.001c-6.307-1.983-14.442-3.271-15.694,2.686,2.774,2.414,8.094,3.799,20.356.983v.005l1.606-.274-.075-.1c.468-.116.921-.222,1.407-.349" fill="#cf2633"/><path d="M486.41349,292.72972c-.228-5.809-7.75-6.15-14.133-5.386l.005-.002s-5.893.703-8.436,1.324l-.028.316c-.262.07-.419.114-.419.114.137.062.261.113.396.172l-.001.005.737.325.016-.002c12.736,5.558,18.582,5.138,21.863,3.134" fill="#cf2633"/><path d="M299.83637,129.2639s82.264,14.942,104.732,28.401l3.137.264,1.638-19.446Z" fill="#cf2633"/><rect x="397.19838" y="146.50019" width="19.51531" height="3.14755" transform="translate(225.27515 541.17849) rotate(-85.18936)" fill="#46c2cc"/><rect x="379.75868" y="80.93129" width="0.99963" height="29.34961" transform="translate(253.07999 466.50052) rotate(-85.18633)" fill="#303443"/><rect x="372.37254" y="168.82454" width="62.43011" height="0.99963" transform="translate(200.95423 557.25915) rotate(-85.18058)" fill="#303443"/><rect x="305.60196" y="232.69561" width="64.29744" height="1.00066" transform="translate(-15.95903 25.00058) rotate(-4.14139)" fill="#303443"/><rect x="355.16228" y="270.33039" width="1.00004" height="30.47329" transform="translate(-4.94484 564.86382) rotate(-76.51998)" fill="#303443"/><polygon points="433.249 339.606 432.253 339.522 434.577 311.897 422.654 310.893 422.738 309.897 435.657 310.985 433.249 339.606" fill="#303443"/><path d="M317.08662,120.08754a54.06288,54.06288,0,0,1-16.41113-2.31543l.33593-.9414a58.03986,58.03986,0,0,0,28.57715.96875l.20508.97851A62.027,62.027,0,0,1,317.08662,120.08754Z" fill="#303443"/><rect x="279.51503" y="150.95069" width="0.99963" height="22.25514" transform="translate(95.02671 427.51576) rotate(-85.1898)" fill="#303443"/><rect x="509.04145" y="181.2781" width="1.0005" height="87.447" transform="translate(237.79922 711.22633) rotate(-84.62506)" fill="#303443"/><rect x="563.9604" y="287.00174" width="1.0005" height="87.447" transform="translate(182.31498 861.724) rotate(-84.62506)" fill="#303443"/><rect x="489.06489" y="77.68089" width="1.0005" height="87.44709" transform="translate(322.83028 597.44282) rotate(-84.62443)" fill="#303443"/><rect x="552.57319" y="134.51536" width="1.0005" height="87.44807" transform="translate(323.80443 712.18249) rotate(-84.62449)" fill="#303443"/><path d="M284.89521,504.67738h-121.458a1.5,1.5,0,0,1,0-3h121.458a1.5,1.5,0,0,1,0,3Z" fill="#303443"/><path d="M303.89521,504.67738h-10.458a1.5,1.5,0,0,1,0-3h10.458a1.5,1.5,0,0,1,0,3Z" fill="#303443"/><path d="M154.89521,504.67738h-4.458a1.5,1.5,0,0,1,0-3h4.458a1.5,1.5,0,0,1,0,3Z" fill="#303443"/><path d="M406.89521,504.67738h-3.458a1.5,1.5,0,0,1,0-3h3.458a1.5,1.5,0,0,1,0,3Z" fill="#303443"/><path d="M526.89521,504.67738h-113.458a1.5,1.5,0,0,1,0-3h113.458a1.5,1.5,0,0,1,0,3Z" fill="#303443"/><path d="M394.89521,504.67738h-83.458a1.5,1.5,0,0,1,0-3h83.458a1.5,1.5,0,0,1,0,3Z" fill="#303443"/><path d="M219.91738,332.51971a5,5,0,1,1-5-5,4.99926,4.99926,0,0,1,5,5" fill="#fff"/><path d="M132.61858,406.81271a4,4,0,1,1-4-4,4.00017,4.00017,0,0,1,4,4" fill="#edf2fa"/><path d="M97.146,315.87521a5,5,0,1,1-5-5,4.99926,4.99926,0,0,1,5,5" fill="#edf2fa"/><path d="M612.854,190.842a4,4,0,1,1-4-4,3.99953,3.99953,0,0,1,4,4" fill="#edf2fa"/><path d="M577.38129,99.9055a5,5,0,1,1-5-5,4.99991,4.99991,0,0,1,5,5" fill="#edf2fa"/><path d="M170.88419,173.46989a5,5,0,1,1-5-5,5.00054,5.00054,0,0,1,5,5" fill="#edf2fa"/><path d="M250.15668,124.1887a6,6,0,1,1-6-6,6.0009,6.0009,0,0,1,6,6" fill="#edf2fa"/><path d="M119.13808,124.1887a4,4,0,1,1-4-4,4.00017,4.00017,0,0,1,4,4" fill="#edf2fa"/><path d="M167.50138,247.68181a4,4,0,1,1-4-4,4.00017,4.00017,0,0,1,4,4" fill="#fff"/><path d="M559.01606,265.8557a7.5065,7.5065,0,1,1-7.506-7.507,7.50533,7.50533,0,0,1,7.506,7.507" fill="#fff"/><path d="M491.58637,178.33812a4,4,0,1,1-4-4,3.99953,3.99953,0,0,1,4,4" fill="#fff"/><path d="M563.99946,410.4826a5,5,0,1,1-5-5,5.00055,5.00055,0,0,1,5,5" fill="#edf2fa"/></svg>